<?xml version="1.0" encoding="UTF-8"?>
<svg xmlns="http://www.w3.org/2000/svg" viewBox="0 0 1920 1080">
  <defs>
    <style>
      .cls-1 {
        fill: #7c40e3;
      }

      .cls-2 {
        opacity: .5;
      }

      .cls-2, .cls-3, .cls-4, .cls-5, .cls-6, .cls-7, .cls-8, .cls-9, .cls-10, .cls-11, .cls-12, .cls-13, .cls-14, .cls-15, .cls-16 {
        fill: #ecccaf;
      }

      .cls-17 {
        fill: #fc8a45;
      }

      .cls-3 {
        opacity: .5;
      }

      .cls-18 {
        fill: #bc17bb;
      }

      .cls-19 {
        fill: #755ad5;
      }

      .cls-4 {
        opacity: .7;
      }

      .cls-20 {
        fill: #df1294;
      }

      .cls-21 {
        fill: #fcb147;
      }

      .cls-22 {
        fill: #ff564e;
      }

      .cls-23 {
        fill: #ff8a43;
      }

      .cls-24 {
        fill: #fcbc48;
      }

      .cls-25 {
        fill: #ff6c49;
      }

      .cls-5 {
        opacity: .2;
      }

      .cls-6 {
        opacity: .5;
      }

      .cls-7 {
        opacity: .3;
      }

      .cls-26 {
        fill: #ff474f;
      }

      .cls-27 {
        fill: #ff7547;
      }

      .cls-8 {
        opacity: .3;
      }

      .cls-28 {
        fill: #fc9546;
      }

      .cls-29 {
        fill: #ff1564;
      }

      .cls-30 {
        fill: #a51bd3;
      }

      .cls-9 {
        opacity: .3;
      }

      .cls-10 {
        opacity: .2;
      }

      .cls-31 {
        fill: #ae18c9;
      }

      .cls-32 {
        fill: #6f7ec0;
      }

      .cls-33 {
        fill: #726eca;
      }

      .cls-34 {
        fill: #ff7946;
      }

      .cls-12 {
        opacity: .7;
      }

      .cls-35 {
        fill: #ff2b5b;
      }

      .cls-36 {
        fill: #b318c3;
      }

      .cls-13 {
        opacity: .5;
      }

      .cls-37 {
        fill: #ff694a;
      }

      .cls-14 {
        opacity: .6;
      }

      .cls-38 {
        fill: #8b21ef;
      }

      .cls-15 {
        opacity: .6;
      }

      .cls-39 {
        fill: #726acb;
      }

      .cls-16 {
        opacity: .3;
      }

      .cls-40 {
        fill: #8607f8;
      }
    </style>
  </defs>
  <g id="main">
    <g>
      <rect class="cls-40" width="1920" height="1080"/>
      <rect class="cls-38" y="872" width="1920" height="208"/>
      <rect class="cls-20" y="295" width="1920" height="423"/>
      <rect class="cls-30" y="853" width="1920" height="20"/>
      <rect class="cls-31" y="792" width="1920" height="16"/>
      <rect class="cls-36" y="762" width="1920" height="16"/>
      <rect class="cls-18" y="732" width="1920" height="16"/>
      <rect class="cls-19" y="777" width="1920" height="16"/>
      <rect class="cls-39" y="747" width="1920" height="16"/>
      <rect class="cls-22" y="171" width="1920" height="16"/>
      <rect class="cls-17" y="156" width="1920" height="16"/>
      <rect class="cls-28" y="126" width="1920" height="16"/>
      <rect class="cls-21" y="97" width="1920" height="15"/>
      <rect class="cls-24" y="0" width="1920" height="84"/>
      <rect class="cls-37" y="141" width="1920" height="16"/>
      <rect class="cls-34" y="111" width="1920" height="16"/>
      <rect class="cls-23" y="83" width="1920" height="15"/>
      <rect class="cls-33" y="717" width="1920" height="16"/>
      <rect class="cls-32" y="688" width="418" height="15"/>
      <rect class="cls-32" x="622" y="688" width="482" height="15"/>
      <rect class="cls-32" x="1565" y="687" width="355" height="17"/>
      <rect class="cls-26" y="278" width="1920" height="18"/>
      <rect class="cls-27" y="240" width="1920" height="24"/>
      <rect class="cls-25" y="185" width="1920" height="34"/>
      <rect class="cls-29" y="262" width="1920" height="17"/>
      <rect class="cls-35" y="218" width="1920" height="23"/>
      <rect class="cls-1" y="807" width="1920" height="47"/>
    </g>
  </g>
  <g id="stars">
    <g>
      <rect class="cls-11" x="356" y="180" width="16" height="16"/>
      <rect class="cls-11" x="356" y="195" width="16" height="16"/>
      <rect class="cls-11" x="356" y="210" width="16" height="16"/>
      <rect class="cls-11" x="371" y="210" width="16" height="16"/>
      <rect class="cls-11" x="326" y="195" width="16" height="16"/>
      <rect class="cls-11" x="341" y="225" width="16" height="16"/>
      <rect class="cls-11" x="341" y="210" width="16" height="16"/>
      <rect class="cls-11" x="341" y="195" width="16" height="16"/>
    </g>
    <g>
      <rect class="cls-11" x="712" y="794" width="16" height="16"/>
      <rect class="cls-11" x="712" y="809" width="16" height="16"/>
      <rect class="cls-11" x="712" y="824" width="16" height="16"/>
      <rect class="cls-11" x="727" y="824" width="16" height="16"/>
      <rect class="cls-11" x="682" y="810" width="16" height="16"/>
      <rect class="cls-11" x="697" y="839" width="16" height="16"/>
      <rect class="cls-11" x="697" y="825" width="16" height="16"/>
      <rect class="cls-11" x="697" y="810" width="16" height="16"/>
    </g>
    <g>
      <rect class="cls-11" x="1614" y="746" width="16" height="16"/>
      <rect class="cls-11" x="1614" y="761" width="16" height="16"/>
      <rect class="cls-11" x="1599" y="761" width="16" height="16"/>
      <rect class="cls-11" x="1599" y="746" width="16" height="16"/>
    </g>
    <g>
      <rect class="cls-11" x="704" y="89" width="16" height="16"/>
      <rect class="cls-11" x="704" y="104" width="16" height="16"/>
      <rect class="cls-11" x="689" y="104" width="16" height="16"/>
      <rect class="cls-11" x="689" y="89" width="16" height="16"/>
    </g>
    <g>
      <rect class="cls-11" x="134" y="934" width="16" height="16"/>
      <rect class="cls-11" x="134" y="949" width="16" height="16"/>
      <rect class="cls-11" x="119" y="949" width="16" height="16"/>
      <rect class="cls-11" x="119" y="934" width="16" height="16"/>
    </g>
    <rect class="cls-9" x="1413" y="763" width="16" height="16"/>
    <rect class="cls-10" x="1522" y="887" width="16" height="16"/>
    <rect class="cls-11" x="1740" y="834" width="16" height="16"/>
    <rect class="cls-11" x="1813" y="266" width="16" height="16"/>
    <rect class="cls-11" x="1584" y="591" width="16" height="16"/>
    <rect class="cls-13" x="1869" y="545" width="16" height="16"/>
    <rect class="cls-7" x="1616" y="452" width="16" height="16"/>
    <rect class="cls-11" x="1520" y="343" width="16" height="16"/>
    <rect class="cls-12" x="1599" y="186" width="16" height="16"/>
    <rect class="cls-4" x="1272" y="234" width="16" height="16"/>
    <rect class="cls-11" x="1321" y="453" width="16" height="16"/>
    <rect class="cls-11" x="1133" y="513" width="16" height="16"/>
    <rect class="cls-11" x="1039" y="342" width="16" height="16"/>
    <rect class="cls-11" x="883" y="219" width="16" height="16"/>
    <rect class="cls-16" x="977" y="93" width="16" height="16"/>
    <g>
      <rect class="cls-11" x="986" y="275" width="16" height="16"/>
      <rect class="cls-11" x="986" y="290" width="16" height="16"/>
      <rect class="cls-11" x="986" y="305" width="16" height="16"/>
      <rect class="cls-11" x="1001" y="290" width="16" height="16"/>
      <rect class="cls-11" x="971" y="290" width="16" height="16"/>
    </g>
    <g>
      <rect class="cls-11" x="1821" y="1005" width="16" height="16"/>
      <rect class="cls-11" x="1821" y="1019" width="16" height="16"/>
      <rect class="cls-11" x="1821" y="1034" width="16" height="16"/>
      <rect class="cls-11" x="1836" y="1019" width="16" height="16"/>
      <rect class="cls-11" x="1805" y="1019" width="16" height="16"/>
    </g>
    <g>
      <rect class="cls-11" x="1411" y="65" width="16" height="16"/>
      <rect class="cls-11" x="1411" y="80" width="16" height="16"/>
      <rect class="cls-11" x="1411" y="95" width="16" height="16"/>
      <rect class="cls-11" x="1426" y="80" width="16" height="16"/>
      <rect class="cls-11" x="1396" y="80" width="16" height="16"/>
    </g>
    <rect class="cls-11" x="1148" y="95" width="16" height="16"/>
    <rect class="cls-11" x="634" y="47" width="16" height="16"/>
    <rect class="cls-11" x="542" y="624" width="16" height="16"/>
    <rect class="cls-8" x="448" y="499" width="16" height="16"/>
    <rect class="cls-14" x="167" y="616" width="16" height="16"/>
    <rect class="cls-11" x="45" y="101" width="16" height="16"/>
    <rect class="cls-11" x="1724" y="18" width="16" height="16"/>
    <rect class="cls-11" x="261" y="498" width="16" height="16"/>
    <rect class="cls-2" x="214" y="203" width="16" height="16"/>
    <rect class="cls-11" x="340" y="716" width="16" height="16"/>
    <rect class="cls-5" x="448" y="778" width="16" height="16"/>
    <rect class="cls-3" x="324" y="949" width="16" height="16"/>
    <rect class="cls-11" x="462" y="995" width="16" height="16"/>
    <rect class="cls-11" x="978" y="887" width="16" height="16"/>
    <rect class="cls-11" x="1179" y="840" width="16" height="16"/>
    <rect class="cls-15" x="1180" y="995" width="16" height="16"/>
    <rect class="cls-6" x="915" y="529" width="16" height="16"/>
  </g>
</svg>