<?xml version="1.0" encoding="UTF-8"?>
<svg id="violet_copy" data-name="violet copy" xmlns="http://www.w3.org/2000/svg" viewBox="0 0 1920 1085.5">
  <defs>
    <style>
      .cls-1 {
        fill: #af9311;
      }

      .cls-2 {
        fill: #b19406;
      }

      .cls-3 {
        fill: #83a914;
      }

      .cls-4 {
        fill: #9c9c12;
      }
    </style>
  </defs>
  <rect class="cls-2" x="45" y="442" width="15" height="15"/>
  <rect class="cls-2" y="427" width="45" height="15"/>
  <rect class="cls-2" x="75" y="412" width="15" height="15"/>
  <rect class="cls-2" y="440" width="30" height="17"/>
  <rect class="cls-2" x="30" y="412" width="15" height="16"/>
  <rect class="cls-2" y="412" width="15" height="16"/>
  <rect class="cls-2" x="44" y="412" width="16" height="15"/>
  <rect class="cls-2" x="60" y="427" width="15" height="15"/>
  <rect class="cls-2" x="75" y="457" width="15" height="15"/>
  <rect class="cls-2" x="105" y="427" width="15" height="15"/>
  <rect class="cls-2" x="120" y="412" width="15" height="15"/>
  <rect class="cls-2" x="341" y="442" width="177" height="15"/>
  <rect class="cls-2" x="554" y="457" width="15" height="15"/>
  <rect class="cls-2" x="408" y="397" width="15" height="15"/>
  <rect class="cls-2" x="584" y="427" width="15" height="15"/>
  <rect class="cls-2" x="599" y="412" width="15" height="15"/>
  <rect class="cls-2" x="943" y="412" width="15" height="15"/>
  <rect class="cls-2" x="973" y="427" width="15" height="15"/>
  <rect class="cls-2" x="988" y="412" width="15" height="15"/>
  <rect class="cls-2" x="884" y="412" width="15" height="15"/>
  <rect class="cls-2" x="30" y="472" width="15" height="15"/>
  <rect class="cls-2" y="472" width="15" height="15"/>
  <rect class="cls-2" x="1860" y="437" width="15" height="15" transform="translate(3735 889) rotate(180)"/>
  <rect class="cls-2" x="1875" y="422" width="45" height="15" transform="translate(3795 859) rotate(180)"/>
  <rect class="cls-2" x="1830" y="407" width="15" height="15" transform="translate(3675 829) rotate(180)"/>
  <rect class="cls-2" x="1890" y="435" width="30" height="17" transform="translate(3810 887) rotate(180)"/>
  <rect class="cls-2" x="1875" y="407" width="15" height="16" transform="translate(3765 830) rotate(180)"/>
  <rect class="cls-2" x="1905" y="407" width="15" height="16" transform="translate(3825 830) rotate(180)"/>
  <rect class="cls-2" x="1860" y="407" width="16" height="15" transform="translate(3736 829) rotate(180)"/>
  <rect class="cls-2" x="1845" y="422" width="15" height="15" transform="translate(3705 859) rotate(180)"/>
  <rect class="cls-2" x="1830" y="452" width="15" height="15" transform="translate(3675 919) rotate(180)"/>
  <rect class="cls-2" x="1800" y="422" width="15" height="15" transform="translate(3615 859) rotate(180)"/>
  <rect class="cls-2" x="1785" y="407" width="15" height="15" transform="translate(3585 829) rotate(180)"/>
  <rect class="cls-2" x="1532" y="377" width="15" height="15" transform="translate(3079 769) rotate(180)"/>
  <rect class="cls-2" x="1875" y="467" width="15" height="15" transform="translate(3765 949) rotate(180)"/>
  <rect class="cls-2" x="1905" y="467" width="15" height="15" transform="translate(3825 949) rotate(180)"/>
  <rect class="cls-2" x="1313" y="437" width="15" height="15" transform="translate(2641 889) rotate(180)"/>
  <rect class="cls-2" x="1343" y="437" width="88" height="15" transform="translate(2774 889) rotate(180)"/>
  <rect class="cls-2" x="1283" y="452" width="15" height="15" transform="translate(2581 919) rotate(180)"/>
  <rect class="cls-2" x="1328" y="467" width="15" height="15" transform="translate(2671 949) rotate(180)"/>
  <rect class="cls-2" x="1272" y="382" width="15" height="15" transform="translate(2559 779) rotate(180)"/>
  <rect class="cls-2" x="1112" y="397" width="15" height="15" transform="translate(2239 809) rotate(180)"/>
  <rect class="cls-2" x="1305" y="382" width="15" height="15" transform="translate(2625 779) rotate(180)"/>
  <rect class="cls-2" x="1358" y="467" width="15" height="15" transform="translate(2731 949) rotate(180)"/>
  <g>
    <rect class="cls-3" width="1920" height="207"/>
    <rect class="cls-2" x="622" y="377" width="482" height="15"/>
    <rect class="cls-2" x="1565" y="377" width="355" height="15"/>
    <rect class="cls-4" y="287" width="1920" height="15"/>
    <rect class="cls-1" y="317" width="1920" height="15"/>
    <rect class="cls-2" y="347" width="1920" height="15"/>
    <rect class="cls-2" y="377" width="263" height="15"/>
    <rect class="cls-2" x="496" y="377" width="608" height="15"/>
    <rect class="cls-2" x="1565" y="377" width="355" height="15"/>
    <rect class="cls-4" y="226" width="1920" height="46"/>
  </g>
</svg>