<?xml version="1.0" encoding="UTF-8"?>
<svg id="stars_copy" data-name="stars copy" xmlns="http://www.w3.org/2000/svg" viewBox="0 0 1920 1080">
  <defs>
    <style>
      .cls-1, .cls-2 {
        opacity: .2;
      }

      .cls-1, .cls-3 {
        fill: #8607f8;
      }

      .cls-4 {
        opacity: .3;
      }

      .cls-4, .cls-5, .cls-6, .cls-7, .cls-8 {
        fill: #ee008c;
      }

      .cls-9, .cls-10 {
        fill: #ffbc3f;
      }

      .cls-5 {
        opacity: .4;
      }

      .cls-2, .cls-11, .cls-12 {
        fill: #db00a0;
      }

      .cls-13 {
        fill: #ff564e;
      }

      .cls-6 {
        opacity: .5;
      }

      .cls-14 {
        fill: #ecccaf;
        opacity: .2;
      }

      .cls-15 {
        opacity: .3;
      }

      .cls-15, .cls-16, .cls-17, .cls-18 {
        fill: #ff9c40;
      }

      .cls-19, .cls-20 {
        fill: #ac00d1;
      }

      .cls-12 {
        opacity: .3;
      }

      .cls-8, .cls-10 {
        opacity: .4;
      }

      .cls-17 {
        opacity: .6;
      }

      .cls-20 {
        opacity: .4;
      }

      .cls-18 {
        opacity: .3;
      }
    </style>
  </defs>
  <g>
    <rect class="cls-16" x="356" y="181" width="16" height="16"/>
    <rect class="cls-16" x="356" y="196" width="16" height="16"/>
    <rect class="cls-16" x="356" y="210" width="16" height="16"/>
    <rect class="cls-16" x="371" y="210" width="16" height="16"/>
    <rect class="cls-16" x="326" y="195" width="16" height="16"/>
    <rect class="cls-16" x="341" y="225" width="16" height="16"/>
    <rect class="cls-16" x="341" y="210" width="16" height="16"/>
    <rect class="cls-16" x="341" y="195" width="16" height="16"/>
  </g>
  <g>
    <rect class="cls-19" x="712" y="795" width="16" height="16"/>
    <rect class="cls-19" x="712" y="810" width="16" height="16"/>
    <rect class="cls-19" x="712" y="825" width="16" height="16"/>
    <rect class="cls-19" x="727" y="825" width="16" height="16"/>
    <rect class="cls-19" x="682" y="810" width="16" height="16"/>
    <rect class="cls-19" x="697" y="840" width="16" height="16"/>
    <rect class="cls-19" x="697" y="825" width="16" height="16"/>
    <rect class="cls-19" x="697" y="810" width="16" height="16"/>
  </g>
  <g>
    <rect class="cls-11" x="1614" y="747" width="16" height="16"/>
    <rect class="cls-11" x="1614" y="762" width="16" height="16"/>
    <rect class="cls-11" x="1599" y="762" width="16" height="16"/>
    <rect class="cls-11" x="1599" y="747" width="16" height="16"/>
  </g>
  <g>
    <rect class="cls-9" x="704" y="89" width="16" height="16"/>
    <rect class="cls-9" x="704" y="104" width="16" height="16"/>
    <rect class="cls-9" x="689" y="104" width="16" height="16"/>
    <rect class="cls-9" x="689" y="89" width="16" height="16"/>
  </g>
  <g>
    <rect class="cls-3" x="134" y="934" width="16" height="16"/>
    <rect class="cls-3" x="134" y="949" width="16" height="16"/>
    <rect class="cls-3" x="119" y="949" width="16" height="16"/>
    <rect class="cls-3" x="119" y="934" width="16" height="16"/>
  </g>
  <rect class="cls-2" x="1413" y="763" width="16" height="16"/>
  <rect class="cls-20" x="1522" y="887" width="16" height="16"/>
  <rect class="cls-19" x="1740" y="834" width="16" height="16"/>
  <rect class="cls-13" x="1813" y="266" width="16" height="16"/>
  <rect class="cls-11" x="1584" y="591" width="16" height="16"/>
  <rect class="cls-5" x="1869" y="545" width="16" height="16"/>
  <rect class="cls-4" x="1616" y="452" width="16" height="16"/>
  <rect class="cls-13" x="1520" y="343" width="16" height="16"/>
  <rect class="cls-18" x="1599" y="186" width="16" height="16"/>
  <rect class="cls-17" x="1272" y="234" width="16" height="16"/>
  <rect class="cls-7" x="1321" y="453" width="16" height="16"/>
  <rect class="cls-7" x="1133" y="513" width="16" height="16"/>
  <rect class="cls-13" x="1039" y="342" width="16" height="16"/>
  <rect class="cls-16" x="883" y="219" width="16" height="16"/>
  <rect class="cls-10" x="977" y="93" width="16" height="16"/>
  <g>
    <rect class="cls-13" x="985" y="275" width="16" height="16"/>
    <rect class="cls-13" x="985" y="290" width="16" height="16"/>
    <rect class="cls-13" x="985" y="305" width="16" height="16"/>
    <rect class="cls-13" x="1000" y="290" width="16" height="16"/>
    <rect class="cls-13" x="970" y="290" width="16" height="16"/>
  </g>
  <g>
    <rect class="cls-3" x="1821" y="1004" width="16" height="16"/>
    <rect class="cls-3" x="1821" y="1019" width="16" height="16"/>
    <rect class="cls-3" x="1821" y="1034" width="16" height="16"/>
    <rect class="cls-3" x="1836" y="1019" width="16" height="16"/>
    <rect class="cls-3" x="1806" y="1019" width="16" height="16"/>
  </g>
  <g>
    <rect class="cls-9" x="1411" y="65" width="16" height="16"/>
    <rect class="cls-9" x="1411" y="80" width="16" height="16"/>
    <rect class="cls-9" x="1411" y="95" width="16" height="16"/>
    <rect class="cls-9" x="1426" y="80" width="16" height="16"/>
    <rect class="cls-9" x="1396" y="80" width="16" height="16"/>
  </g>
  <rect class="cls-9" x="1148" y="95" width="16" height="16"/>
  <rect class="cls-9" x="634" y="47" width="16" height="16"/>
  <rect class="cls-11" x="542" y="624" width="16" height="16"/>
  <rect class="cls-8" x="448" y="499" width="16" height="16"/>
  <rect class="cls-12" x="167" y="616" width="16" height="16"/>
  <rect class="cls-9" x="45" y="101" width="16" height="16"/>
  <rect class="cls-9" x="1724" y="18" width="16" height="16"/>
  <rect class="cls-7" x="261" y="498" width="16" height="16"/>
  <rect class="cls-15" x="214" y="203" width="16" height="16"/>
  <rect class="cls-11" x="340" y="716" width="16" height="16"/>
  <rect class="cls-14" x="448" y="778" width="16" height="16"/>
  <rect class="cls-1" x="324" y="949" width="16" height="16"/>
  <rect class="cls-3" x="462" y="995" width="16" height="16"/>
  <rect class="cls-19" x="978" y="887" width="16" height="16"/>
  <rect class="cls-19" x="1179" y="840" width="16" height="16"/>
  <rect class="cls-3" x="1180" y="995" width="16" height="16"/>
  <rect class="cls-6" x="915" y="529" width="16" height="16"/>
</svg>